<?xml version="1.0" encoding="iso-8859-1"?>
<!-- Generator: Adobe Illustrator 16.0.0, SVG Export Plug-In . SVG Version: 6.00 Build 0)  -->
<!DOCTYPE svg PUBLIC "-//W3C//DTD SVG 1.1//EN" "http://www.w3.org/Graphics/SVG/1.1/DTD/svg11.dtd">
<svg xmlns="http://www.w3.org/2000/svg" xmlns:xlink="http://www.w3.org/1999/xlink" version="1.1" id="Capa_1" x="0px" y="0px" width="512px" height="512px" viewBox="0 0 401.793 401.793" style="enable-background:new 0 0 401.793 401.793;" xml:space="preserve">
<g>
	<g>
		<path d="M200.896,0C90.117,0,0,90.12,0,200.899c0,110.773,90.117,200.894,200.896,200.894    c110.776,0,200.896-90.12,200.896-200.894C401.793,90.12,311.673,0,200.896,0z M200.896,254.819    c-29.735,0-53.926-24.187-53.926-53.929c0-29.735,24.19-53.923,53.926-53.923c29.736,0,53.923,24.188,53.923,53.923    C254.819,230.633,230.633,254.819,200.896,254.819z M333.086,213.194c-6.797,0-12.298-5.5-12.298-12.295    c0-66.101-53.791-119.892-119.892-119.892c-6.794,0-12.298-5.503-12.298-12.298c0-6.788,5.503-12.298,12.298-12.298    c79.672,0,144.487,64.816,144.487,144.487C345.384,207.694,339.872,213.194,333.086,213.194z" fill="#FFFFFF"/>
		<path d="M200.896,177.718c-12.778,0-23.182,10.397-23.182,23.181c0,12.781,10.397,23.182,23.182,23.182s23.179-10.4,23.179-23.182    C224.075,188.115,213.675,177.718,200.896,177.718z" fill="#FFFFFF"/>
	</g>
</g>
<g>
</g>
<g>
</g>
<g>
</g>
<g>
</g>
<g>
</g>
<g>
</g>
<g>
</g>
<g>
</g>
<g>
</g>
<g>
</g>
<g>
</g>
<g>
</g>
<g>
</g>
<g>
</g>
<g>
</g>
</svg>
